<svg xmlns="http://www.w3.org/2000/svg" xmlns:xlink="http://www.w3.org/1999/xlink" width="500" zoomAndPan="magnify" viewBox="0 0 375 374.999991" height="500" preserveAspectRatio="xMidYMid meet" version="1.2"><defs><clipPath id="b6efebe457"><path d="M 145.179688 129.363281 L 229.929688 129.363281 L 229.929688 177.363281 L 145.179688 177.363281 Z M 145.179688 129.363281 "/></clipPath><clipPath id="8b52b91fad"><path d="M 222.230469 159.5625 L 278.480469 159.5625 L 278.480469 181.3125 L 222.230469 181.3125 Z M 222.230469 159.5625 "/></clipPath><clipPath id="b332338ee4"><path d="M 96.265625 159.5625 L 152.515625 159.5625 L 152.515625 181.3125 L 96.265625 181.3125 Z M 96.265625 159.5625 "/></clipPath><clipPath id="255382b9d2"><path d="M 0.511719 0.601562 L 56.515625 0.601562 L 56.515625 22.3125 L 0.511719 22.3125 Z M 0.511719 0.601562 "/></clipPath><clipPath id="dd2025baa7"><rect x="0" width="57" y="0" height="23"/></clipPath><clipPath id="0bc7676a51"><rect x="0" width="292" y="0" height="51"/></clipPath></defs><g id="d1b7d7904a"><rect x="0" width="375" y="0" height="374.999991" style="fill:#ffffff;fill-opacity:1;stroke:none;"/><rect x="0" width="375" y="0" height="374.999991" style="fill:#000000;fill-opacity:1;stroke:none;"/><g clip-rule="nonzero" clip-path="url(#b6efebe457)"><path style=" stroke:none;fill-rule:evenodd;fill:#d5af34;fill-opacity:1;" d="M 229.8125 145.917969 L 227.496094 148.082031 L 227.835938 149.5625 C 216.722656 161.882812 209.378906 167.710938 207.238281 164.605469 C 205.527344 158.710938 206.382812 152.882812 209.074219 147.097656 L 211.363281 146.027344 L 211.804688 140.957031 L 208.289062 144.640625 L 209.007812 147.105469 C 206.101562 151.984375 202.980469 156.300781 199.410156 159.457031 C 195.648438 162.78125 194.503906 163.246094 192.070312 158.019531 C 190.269531 154.148438 189.652344 148.960938 188.441406 144.429688 L 191.519531 140.835938 L 187.496094 129.371094 L 183.472656 140.835938 L 186.550781 144.429688 C 185.339844 148.957031 184.722656 154.148438 182.921875 158.019531 C 180.492188 163.246094 179.34375 162.78125 175.582031 159.457031 C 172.011719 156.300781 168.890625 151.980469 165.984375 147.105469 L 166.703125 144.640625 L 163.1875 140.957031 L 163.628906 146.027344 L 165.917969 147.101562 C 168.609375 152.882812 169.46875 158.710938 167.753906 164.605469 C 165.613281 167.710938 158.273438 161.882812 147.15625 149.5625 L 147.496094 148.082031 L 145.179688 145.917969 L 145.636719 149.054688 L 147.011719 149.605469 L 162.847656 177.175781 L 157.984375 163.78125 C 158.082031 163.863281 158.179688 163.941406 158.28125 164.019531 C 160.757812 166.007812 165.101562 169.222656 168.394531 167.308594 C 168.953125 166.980469 169.421875 166.539062 169.785156 166.007812 L 170.011719 165.679688 L 170.125 165.292969 C 170.789062 163.003906 171.101562 160.734375 171.101562 158.484375 C 172.007812 159.480469 172.953125 160.429688 173.949219 161.308594 C 175.621094 162.785156 177.742188 164.738281 180.160156 164.378906 C 182.777344 163.996094 184.164062 161.207031 185.160156 159.0625 C 186.265625 156.683594 186.925781 154.035156 187.496094 151.433594 C 188.066406 154.035156 188.726562 156.683594 189.832031 159.0625 C 190.832031 161.207031 192.214844 163.996094 194.832031 164.378906 C 197.25 164.738281 199.371094 162.785156 201.042969 161.308594 C 202.039062 160.429688 202.984375 159.480469 203.890625 158.484375 C 203.894531 160.734375 204.203125 163.003906 204.867188 165.292969 L 204.980469 165.679688 L 205.207031 166.007812 C 205.574219 166.539062 206.039062 166.980469 206.597656 167.308594 C 209.890625 169.222656 214.234375 166.007812 216.714844 164.019531 C 216.8125 163.941406 216.910156 163.863281 217.007812 163.78125 L 212.742188 176.183594 L 227.980469 149.605469 L 229.355469 149.054688 Z M 229.8125 145.917969 "/></g><path style=" stroke:none;fill-rule:evenodd;fill:#d5af34;fill-opacity:1;" d="M 179.183594 156.148438 C 179.46875 157.441406 179.789062 158.753906 180.222656 160.003906 C 180.511719 159.625 180.902344 158.992188 181.417969 157.929688 C 180.632812 155.019531 180.199219 151.710938 179.183594 149.054688 C 178.085938 151.929688 177.671875 155.558594 176.75 158.625 C 177.160156 158.984375 177.695312 159.445312 178.207031 159.832031 C 178.613281 158.632812 178.914062 157.382812 179.183594 156.148438 Z M 179.183594 156.148438 "/><path style=" stroke:none;fill-rule:evenodd;fill:#d5af34;fill-opacity:1;" d="M 195.785156 156.148438 C 196.054688 157.386719 196.359375 158.644531 196.765625 159.84375 C 197.277344 159.464844 197.8125 159.003906 198.222656 158.644531 C 197.300781 155.570312 196.882812 151.933594 195.785156 149.054688 C 194.773438 151.703125 194.339844 154.996094 193.558594 157.894531 C 194.074219 158.957031 194.464844 159.597656 194.757812 159.984375 C 195.1875 158.738281 195.503906 157.4375 195.785156 156.148438 Z M 195.785156 156.148438 "/><path style=" stroke:none;fill-rule:evenodd;fill:#d5af34;fill-opacity:1;" d="M 210.457031 163.582031 C 210.757812 161.613281 211.273438 159.542969 211.324219 157.691406 C 210.160156 158.921875 209.140625 160.558594 208.074219 162.058594 C 208.171875 162.605469 208.292969 163.148438 208.4375 163.691406 C 208.761719 163.269531 209.070312 162.835938 209.375 162.402344 C 209.277344 162.9375 209.1875 163.476562 209.121094 164.015625 C 209.453125 163.972656 209.886719 163.847656 210.457031 163.582031 Z M 210.457031 163.582031 "/><path style=" stroke:none;fill-rule:evenodd;fill:#d5af34;fill-opacity:1;" d="M 166.921875 162.058594 C 165.851562 160.558594 164.832031 158.921875 163.671875 157.691406 C 163.722656 159.539062 164.234375 161.613281 164.535156 163.582031 C 165.105469 163.847656 165.542969 163.972656 165.875 164.015625 C 165.804688 163.472656 165.714844 162.933594 165.621094 162.402344 C 165.921875 162.835938 166.230469 163.269531 166.554688 163.691406 C 166.699219 163.148438 166.820312 162.605469 166.921875 162.058594 Z M 166.921875 162.058594 "/><path style=" stroke:none;fill-rule:evenodd;fill:#d5af34;fill-opacity:1;" d="M 205.214844 173.136719 C 204.316406 172.617188 203.550781 171.90625 202.941406 171.023438 L 202.460938 170.324219 L 202.222656 169.511719 C 202.054688 168.9375 201.90625 168.355469 201.78125 167.773438 C 200.136719 169.160156 198.035156 170.628906 195.414062 170.628906 C 195.085938 170.628906 194.753906 170.601562 194.429688 170.554688 C 190.460938 169.96875 188.550781 166.261719 187.496094 164.015625 C 186.445312 166.261719 184.535156 169.96875 180.5625 170.554688 C 180.238281 170.601562 179.90625 170.628906 179.578125 170.628906 C 176.960938 170.628906 174.859375 169.160156 173.214844 167.773438 C 173.085938 168.355469 172.9375 168.9375 172.769531 169.511719 L 172.535156 170.324219 L 172.054688 171.019531 C 171.445312 171.902344 170.683594 172.613281 169.78125 173.136719 C 168.6875 173.777344 167.464844 174.097656 166.152344 174.097656 C 165.597656 174.097656 165.046875 174.039062 164.503906 173.933594 L 165.714844 176.304688 C 169.648438 174.894531 176.21875 173.214844 185.242188 173.214844 L 185.546875 173.214844 C 186.214844 173.214844 186.863281 173.222656 187.496094 173.238281 C 188.132812 173.222656 188.78125 173.214844 189.449219 173.214844 L 189.75 173.214844 C 199.621094 173.214844 206.5625 175.222656 210.320312 176.691406 L 211.921875 173.554688 L 211.925781 173.546875 C 210.921875 173.890625 209.886719 174.097656 208.84375 174.097656 C 207.53125 174.097656 206.308594 173.773438 205.214844 173.136719 Z M 205.214844 173.136719 "/><g clip-rule="nonzero" clip-path="url(#8b52b91fad)"><path style=" stroke:none;fill-rule:nonzero;fill:#d5af34;fill-opacity:1;" d="M 277.921875 163.046875 C 276.730469 160.882812 274.105469 159.609375 271.6875 160.132812 C 270.5 160.382812 269.347656 161.089844 268.773438 162.203125 C 268.207031 163.296875 268.242188 164.746094 269.070312 165.710938 L 269.191406 165.605469 C 268.472656 164.660156 268.539062 163.316406 269.101562 162.378906 C 269.660156 161.417969 270.71875 160.828125 271.800781 160.65625 C 273.984375 160.285156 276.273438 161.578125 277.175781 163.457031 C 277.632812 164.394531 277.789062 165.46875 277.65625 166.523438 C 277.523438 167.578125 277.113281 168.601562 276.511719 169.464844 C 275.289062 171.183594 273.230469 172.246094 271.089844 172.609375 C 270.019531 172.800781 268.917969 172.816406 267.808594 172.703125 C 266.703125 172.597656 265.59375 172.386719 264.492188 172.078125 C 262.289062 171.460938 260.089844 170.566406 258 169.542969 C 253.816406 167.515625 249.929688 164.621094 245.445312 162.394531 C 243.183594 161.300781 240.777344 160.429688 238.226562 159.992188 C 235.683594 159.5625 232.984375 159.578125 230.410156 160.457031 C 227.867188 161.351562 225.609375 162.996094 224.058594 165.253906 C 223.296875 166.386719 222.726562 167.683594 222.484375 169.0625 C 222.230469 170.40625 222.34375 171.964844 222.867188 173.257812 C 223.371094 174.570312 224.175781 175.703125 225.160156 176.632812 C 226.148438 177.558594 227.335938 178.289062 228.675781 178.660156 C 230.003906 179.039062 231.519531 178.980469 232.804688 178.386719 L 233.28125 178.164062 C 233.433594 178.078125 233.570312 177.96875 233.714844 177.875 C 233.996094 177.671875 234.289062 177.484375 234.535156 177.234375 C 235.035156 176.753906 235.464844 176.183594 235.757812 175.550781 C 236.355469 174.285156 236.4375 172.804688 236.011719 171.511719 C 235.582031 170.214844 234.707031 169.128906 233.589844 168.4375 C 233.027344 168.09375 232.394531 167.847656 231.730469 167.777344 C 231.078125 167.703125 230.367188 167.808594 229.792969 168.144531 C 229.21875 168.464844 228.75 168.949219 228.457031 169.523438 C 228.15625 170.09375 228.070312 170.78125 228.265625 171.386719 L 228.421875 171.34375 C 228.277344 170.777344 228.386719 170.164062 228.6875 169.660156 C 228.980469 169.152344 229.433594 168.738281 229.960938 168.480469 C 231.019531 167.9375 232.332031 168.222656 233.292969 168.886719 C 234.269531 169.546875 235.015625 170.5625 235.339844 171.703125 C 235.667969 172.84375 235.542969 174.105469 234.996094 175.15625 C 234.726562 175.683594 234.359375 176.160156 233.921875 176.554688 C 233.710938 176.765625 233.453125 176.914062 233.210938 177.082031 C 233.085938 177.160156 232.964844 177.25 232.835938 177.320312 L 232.429688 177.496094 C 231.347656 177.964844 230.105469 177.984375 228.976562 177.636719 C 226.714844 176.933594 224.867188 175.054688 224.050781 172.832031 C 223.640625 171.710938 223.574219 170.492188 223.816406 169.324219 C 224.046875 168.15625 224.542969 167.046875 225.21875 166.066406 C 226.597656 164.117188 228.640625 162.667969 230.890625 161.914062 C 233.15625 161.167969 235.617188 161.140625 237.960938 161.554688 C 238.691406 161.683594 239.417969 161.855469 240.132812 162.0625 C 242.375 163.269531 244.285156 164.742188 245.84375 166.492188 C 246.601562 167.398438 247.335938 168.3125 247.878906 169.339844 C 248.460938 170.339844 248.9375 171.378906 249.132812 172.40625 C 249.386719 173.425781 249.355469 174.429688 249.035156 175.34375 C 248.894531 175.800781 248.671875 176.210938 248.386719 176.558594 C 248.097656 176.886719 247.761719 177.167969 247.339844 177.371094 C 246.511719 177.761719 245.46875 177.804688 244.71875 177.246094 C 243.925781 176.6875 243.363281 175.5 243.753906 174.292969 L 243.617188 174.203125 C 242.890625 175.34375 243.195312 176.90625 244.097656 177.84375 C 244.546875 178.332031 245.175781 178.632812 245.816406 178.746094 C 246.460938 178.859375 247.132812 178.796875 247.75 178.585938 C 248.371094 178.382812 248.941406 178.019531 249.402344 177.550781 C 249.855469 177.078125 250.214844 176.515625 250.453125 175.90625 C 250.949219 174.691406 250.992188 173.324219 250.714844 172.058594 C 250.425781 170.785156 249.855469 169.605469 249.164062 168.523438 C 248.484375 167.429688 247.644531 166.445312 246.714844 165.5625 C 245.863281 164.757812 244.914062 164.054688 243.90625 163.464844 C 244.183594 163.589844 244.460938 163.722656 244.738281 163.855469 C 249.058594 165.957031 252.96875 168.851562 257.351562 170.925781 C 257.390625 170.945312 257.4375 170.960938 257.480469 170.984375 C 258.648438 171.890625 259.777344 172.742188 260.855469 173.617188 C 261.488281 174.164062 262.105469 174.65625 262.554688 175.226562 C 263.023438 175.769531 263.382812 176.335938 263.554688 176.933594 C 263.65625 177.222656 263.71875 177.507812 263.730469 177.785156 C 263.746094 178.058594 263.699219 178.304688 263.632812 178.570312 C 263.566406 178.828125 263.449219 179.078125 263.300781 179.28125 C 263.140625 179.480469 262.980469 179.644531 262.761719 179.78125 C 262.53125 179.921875 262.203125 180.003906 261.847656 180.066406 C 261.5 180.136719 261.128906 180.148438 260.761719 180.117188 C 260.007812 180.070312 259.257812 179.820312 258.582031 179.210938 L 258.441406 179.285156 C 258.851562 180.105469 259.640625 180.675781 260.496094 180.957031 C 261.351562 181.226562 262.285156 181.277344 263.167969 181.011719 C 264.058594 180.726562 264.734375 179.976562 265.0625 179.125 C 265.40625 178.265625 265.371094 177.285156 265.089844 176.425781 C 264.796875 175.558594 264.277344 174.789062 263.648438 174.152344 C 263.132812 173.628906 262.546875 173.183594 261.941406 172.785156 C 262.667969 173.027344 263.394531 173.257812 264.136719 173.457031 C 266.46875 174.058594 268.945312 174.34375 271.339844 173.84375 C 273.707031 173.367188 276.015625 172.113281 277.390625 170.050781 C 278.0625 169.027344 278.496094 167.839844 278.609375 166.617188 C 278.722656 165.394531 278.511719 164.128906 277.921875 163.046875 "/></g><g clip-rule="nonzero" clip-path="url(#b332338ee4)"><g transform="matrix(1,0,0,1,96,159)"><g clip-path="url(#dd2025baa7)"><g clip-rule="nonzero" clip-path="url(#255382b9d2)"><path style=" stroke:none;fill-rule:nonzero;fill:#d5af34;fill-opacity:1;" d="M 1.070312 4.046875 C 2.261719 1.882812 4.886719 0.609375 7.304688 1.132812 C 8.492188 1.382812 9.644531 2.089844 10.222656 3.203125 C 10.785156 4.296875 10.75 5.746094 9.921875 6.710938 L 9.800781 6.605469 C 10.519531 5.660156 10.453125 4.316406 9.890625 3.378906 C 9.332031 2.417969 8.273438 1.828125 7.195312 1.65625 C 5.007812 1.285156 2.71875 2.578125 1.816406 4.457031 C 1.363281 5.394531 1.203125 6.46875 1.335938 7.523438 C 1.46875 8.578125 1.878906 9.601562 2.480469 10.464844 C 3.703125 12.183594 5.765625 13.246094 7.902344 13.609375 C 8.972656 13.800781 10.074219 13.816406 11.183594 13.703125 C 12.289062 13.597656 13.402344 13.386719 14.503906 13.078125 C 16.703125 12.460938 18.902344 11.566406 20.992188 10.542969 C 25.175781 8.515625 29.066406 5.621094 33.546875 3.394531 C 35.808594 2.300781 38.214844 1.429688 40.765625 0.992188 C 43.308594 0.5625 46.007812 0.578125 48.582031 1.457031 C 51.125 2.351562 53.382812 3.996094 54.933594 6.253906 C 55.695312 7.386719 56.265625 8.683594 56.511719 10.0625 C 56.765625 11.40625 56.648438 12.964844 56.128906 14.257812 C 55.621094 15.570312 54.816406 16.703125 53.832031 17.632812 C 52.84375 18.558594 51.660156 19.289062 50.316406 19.660156 C 48.988281 20.039062 47.472656 19.980469 46.191406 19.386719 L 45.710938 19.164062 C 45.558594 19.078125 45.421875 18.96875 45.277344 18.875 C 44.996094 18.671875 44.707031 18.484375 44.460938 18.234375 C 43.957031 17.753906 43.527344 17.183594 43.234375 16.550781 C 42.636719 15.285156 42.554688 13.804688 42.980469 12.511719 C 43.410156 11.214844 44.285156 10.128906 45.402344 9.4375 C 45.964844 9.09375 46.597656 8.847656 47.261719 8.777344 C 47.914062 8.703125 48.625 8.808594 49.199219 9.144531 C 49.773438 9.464844 50.242188 9.949219 50.535156 10.523438 C 50.835938 11.09375 50.921875 11.78125 50.730469 12.386719 L 50.574219 12.34375 C 50.714844 11.777344 50.605469 11.164062 50.304688 10.660156 C 50.011719 10.152344 49.558594 9.738281 49.035156 9.480469 C 47.972656 8.9375 46.664062 9.222656 45.703125 9.886719 C 44.722656 10.546875 43.976562 11.5625 43.652344 12.703125 C 43.324219 13.84375 43.449219 15.105469 43.996094 16.15625 C 44.265625 16.683594 44.632812 17.160156 45.070312 17.554688 C 45.28125 17.765625 45.539062 17.914062 45.785156 18.082031 C 45.910156 18.160156 46.027344 18.25 46.15625 18.320312 L 46.5625 18.496094 C 47.644531 18.964844 48.890625 18.984375 50.015625 18.636719 C 52.277344 17.933594 54.125 16.054688 54.941406 13.832031 C 55.351562 12.710938 55.417969 11.492188 55.175781 10.324219 C 54.945312 9.15625 54.449219 8.046875 53.773438 7.066406 C 52.394531 5.117188 50.355469 3.667969 48.101562 2.914062 C 45.835938 2.167969 43.378906 2.140625 41.03125 2.554688 C 40.300781 2.683594 39.578125 2.855469 38.859375 3.0625 C 36.617188 4.269531 34.707031 5.742188 33.152344 7.492188 C 32.390625 8.398438 31.660156 9.3125 31.113281 10.339844 C 30.535156 11.339844 30.058594 12.378906 29.859375 13.40625 C 29.609375 14.425781 29.636719 15.429688 29.957031 16.34375 C 30.097656 16.800781 30.324219 17.210938 30.605469 17.558594 C 30.894531 17.886719 31.234375 18.167969 31.652344 18.371094 C 32.480469 18.761719 33.527344 18.804688 34.277344 18.246094 C 35.066406 17.6875 35.628906 16.5 35.242188 15.292969 L 35.375 15.203125 C 36.105469 16.34375 35.796875 17.90625 34.894531 18.84375 C 34.445312 19.332031 33.820312 19.632812 33.175781 19.746094 C 32.53125 19.859375 31.859375 19.796875 31.242188 19.585938 C 30.621094 19.382812 30.050781 19.019531 29.589844 18.550781 C 29.136719 18.078125 28.777344 17.515625 28.539062 16.90625 C 28.042969 15.691406 28 14.324219 28.28125 13.058594 C 28.566406 11.785156 29.136719 10.605469 29.828125 9.523438 C 30.507812 8.429688 31.347656 7.445312 32.277344 6.5625 C 33.132812 5.757812 34.078125 5.054688 35.085938 4.464844 C 34.808594 4.589844 34.53125 4.722656 34.253906 4.855469 C 29.933594 6.957031 26.023438 9.851562 21.644531 11.925781 C 21.601562 11.945312 21.554688 11.960938 21.511719 11.984375 C 20.347656 12.890625 19.214844 13.742188 18.136719 14.617188 C 17.503906 15.164062 16.886719 15.65625 16.4375 16.226562 C 15.96875 16.769531 15.609375 17.335938 15.441406 17.933594 C 15.335938 18.222656 15.273438 18.507812 15.261719 18.785156 C 15.246094 19.058594 15.292969 19.304688 15.359375 19.570312 C 15.425781 19.828125 15.542969 20.078125 15.691406 20.28125 C 15.851562 20.480469 16.011719 20.644531 16.230469 20.78125 C 16.460938 20.921875 16.792969 21.003906 17.144531 21.066406 C 17.496094 21.136719 17.863281 21.148438 18.234375 21.117188 C 18.984375 21.070312 19.738281 20.820312 20.410156 20.210938 L 20.554688 20.285156 C 20.140625 21.105469 19.351562 21.675781 18.5 21.957031 C 17.640625 22.226562 16.707031 22.277344 15.828125 22.011719 C 14.9375 21.726562 14.257812 20.976562 13.929688 20.125 C 13.585938 19.265625 13.621094 18.285156 13.90625 17.425781 C 14.195312 16.558594 14.714844 15.789062 15.34375 15.152344 C 15.859375 14.628906 16.445312 14.183594 17.050781 13.785156 C 16.328125 14.027344 15.597656 14.257812 14.855469 14.457031 C 12.523438 15.058594 10.046875 15.34375 7.652344 14.84375 C 5.285156 14.367188 2.976562 13.113281 1.601562 11.050781 C 0.933594 10.027344 0.5 8.839844 0.382812 7.617188 C 0.269531 6.394531 0.480469 5.128906 1.070312 4.046875 "/></g></g></g></g><g transform="matrix(1,0,0,1,47,181)"><g clip-path="url(#0bc7676a51)"><g style="fill:#d4af37;fill-opacity:1;"><g transform="translate(1.646324, 36.5486)"><path style="stroke:none" d="M 2.703125 -0.375 C 3.335938 -0.375 3.882812 -0.597656 4.34375 -1.046875 C 4.800781 -1.503906 5.039062 -2.054688 5.0625 -2.703125 L 5.0625 -23.203125 C 5.039062 -23.835938 4.800781 -24.382812 4.34375 -24.84375 C 3.882812 -25.300781 3.335938 -25.53125 2.703125 -25.53125 L 2.21875 -25.53125 L 2.21875 -25.90625 L 10.328125 -25.90625 L 10.328125 -25.53125 L 9.84375 -25.53125 C 8.957031 -25.53125 8.28125 -25.148438 7.8125 -24.390625 C 7.582031 -24.015625 7.46875 -23.617188 7.46875 -23.203125 L 7.46875 -1.140625 L 12.765625 -1.140625 C 14.585938 -1.140625 15.976562 -1.546875 16.9375 -2.359375 C 17.90625 -3.179688 18.707031 -4.394531 19.34375 -6 L 19.71875 -6 L 17.578125 0 L 2.21875 0 L 2.21875 -0.375 Z M 2.703125 -0.375 "/></g></g><g style="fill:#d4af37;fill-opacity:1;"><g transform="translate(33.610791, 36.5486)"><path style="stroke:none" d="M 27.1875 -25.53125 L 26.609375 -25.53125 C 26.085938 -25.53125 25.632812 -25.363281 25.25 -25.03125 C 24.863281 -24.695312 24.660156 -24.285156 24.640625 -23.796875 L 24.640625 -9.140625 C 24.640625 -6.253906 23.726562 -3.921875 21.90625 -2.140625 C 20.082031 -0.367188 17.648438 0.515625 14.609375 0.515625 C 11.578125 0.515625 9.117188 -0.363281 7.234375 -2.125 C 5.347656 -3.882812 4.40625 -6.210938 4.40625 -9.109375 L 4.40625 -23.6875 C 4.40625 -24.425781 4.082031 -24.96875 3.4375 -25.3125 C 3.144531 -25.457031 2.8125 -25.53125 2.4375 -25.53125 L 1.84375 -25.53125 L 1.84375 -25.90625 L 9.359375 -25.90625 L 9.359375 -25.53125 L 8.765625 -25.53125 C 8.222656 -25.53125 7.765625 -25.363281 7.390625 -25.03125 C 7.023438 -24.695312 6.832031 -24.269531 6.8125 -23.75 L 6.8125 -9.625 C 6.8125 -6.9375 7.53125 -4.765625 8.96875 -3.109375 C 10.414062 -1.453125 12.347656 -0.625 14.765625 -0.625 C 17.179688 -0.625 19.140625 -1.40625 20.640625 -2.96875 C 22.148438 -4.539062 22.90625 -6.597656 22.90625 -9.140625 L 22.90625 -23.75 C 22.875 -24.269531 22.671875 -24.695312 22.296875 -25.03125 C 21.929688 -25.363281 21.476562 -25.53125 20.9375 -25.53125 L 20.34375 -25.53125 L 20.34375 -25.90625 L 27.1875 -25.90625 Z M 27.1875 -25.53125 "/></g></g><g style="fill:#d4af37;fill-opacity:1;"><g transform="translate(73.824638, 36.5486)"><path style="stroke:none" d="M 24.421875 -0.375 L 24.9375 -0.375 L 24.9375 0 L 15.90625 0 L 15.90625 -0.375 L 16.34375 -0.375 C 16.882812 -0.375 17.304688 -0.617188 17.609375 -1.109375 C 17.773438 -1.378906 17.859375 -1.632812 17.859375 -1.875 C 17.859375 -2.125 17.800781 -2.375 17.6875 -2.625 L 11.984375 -11.625 L 6.28125 -2.65625 C 6.132812 -2.414062 6.0625 -2.164062 6.0625 -1.90625 C 6.0625 -1.644531 6.148438 -1.390625 6.328125 -1.140625 C 6.640625 -0.628906 7.054688 -0.375 7.578125 -0.375 L 8.0625 -0.375 L 8.0625 0 L -0.34375 0 L -0.34375 -0.375 L 0.171875 -0.375 C 0.921875 -0.375 1.625 -0.582031 2.28125 -1 C 2.945312 -1.414062 3.503906 -1.929688 3.953125 -2.546875 L 11.015625 -13.09375 L 4.546875 -23.34375 C 3.953125 -24.207031 3.195312 -24.835938 2.28125 -25.234375 C 1.789062 -25.429688 1.300781 -25.53125 0.8125 -25.53125 L 0.296875 -25.53125 L 0.296875 -25.90625 L 9.25 -25.90625 L 9.25 -25.53125 L 8.796875 -25.53125 C 8.273438 -25.53125 7.859375 -25.285156 7.546875 -24.796875 C 7.367188 -24.523438 7.28125 -24.265625 7.28125 -24.015625 C 7.28125 -23.765625 7.34375 -23.515625 7.46875 -23.265625 L 12.578125 -15.28125 L 17.609375 -23.234375 C 17.753906 -23.484375 17.828125 -23.738281 17.828125 -24 C 17.828125 -24.257812 17.753906 -24.507812 17.609375 -24.75 C 17.304688 -25.269531 16.882812 -25.53125 16.34375 -25.53125 L 15.90625 -25.53125 L 15.90625 -25.90625 L 24.234375 -25.90625 L 24.234375 -25.53125 L 23.71875 -25.53125 C 22.96875 -25.53125 22.265625 -25.316406 21.609375 -24.890625 C 20.960938 -24.472656 20.414062 -23.957031 19.96875 -23.34375 L 13.5 -13.796875 L 20.671875 -2.515625 C 21.265625 -1.679688 22.019531 -1.066406 22.9375 -0.671875 C 23.425781 -0.472656 23.921875 -0.375 24.421875 -0.375 Z M 24.421875 -0.375 "/></g></g><g style="fill:#d4af37;fill-opacity:1;"><g transform="translate(109.48837, 36.5486)"><path style="stroke:none" d="M 27.78125 -25.53125 L 27.453125 -25.53125 C 26.609375 -25.53125 25.84375 -25.195312 25.15625 -24.53125 C 24.757812 -24.1875 24.453125 -23.753906 24.234375 -23.234375 L 15.3125 -3.296875 C 14.394531 -1.296875 13.9375 -0.0234375 13.9375 0.515625 L 13.609375 0.515625 L 3.21875 -23.203125 C 2.863281 -23.992188 2.382812 -24.578125 1.78125 -24.953125 C 1.175781 -25.335938 0.566406 -25.53125 -0.046875 -25.53125 L -0.34375 -25.53125 L -0.34375 -25.90625 L 7.984375 -25.90625 L 7.984375 -25.53125 L 7.65625 -25.53125 C 6.914062 -25.53125 6.421875 -25.1875 6.171875 -24.5 C 6.117188 -24.34375 6.09375 -24.164062 6.09375 -23.96875 C 6.09375 -23.78125 6.15625 -23.535156 6.28125 -23.234375 L 14.015625 -3.84375 L 22.078125 -23.234375 C 22.179688 -23.535156 22.234375 -23.828125 22.234375 -24.109375 C 22.234375 -24.390625 22.101562 -24.695312 21.84375 -25.03125 C 21.582031 -25.363281 21.191406 -25.53125 20.671875 -25.53125 L 20.34375 -25.53125 L 20.34375 -25.90625 L 27.78125 -25.90625 Z M 27.78125 -25.53125 "/></g></g><g style="fill:#d4af37;fill-opacity:1;"><g transform="translate(148.037545, 36.5486)"><path style="stroke:none" d="M 2.703125 -0.375 C 3.335938 -0.375 3.882812 -0.597656 4.34375 -1.046875 C 4.800781 -1.503906 5.039062 -2.054688 5.0625 -2.703125 L 5.0625 -23.421875 C 4.988281 -24.015625 4.726562 -24.515625 4.28125 -24.921875 C 3.84375 -25.328125 3.316406 -25.53125 2.703125 -25.53125 L 2.25 -25.53125 L 2.21875 -25.90625 L 13.0625 -25.90625 C 13.820312 -25.90625 14.648438 -25.976562 15.546875 -26.125 C 16.453125 -26.269531 17.09375 -26.414062 17.46875 -26.5625 L 17.46875 -21.90625 L 17.09375 -21.90625 L 17.09375 -22.5625 C 17.09375 -23.15625 16.890625 -23.660156 16.484375 -24.078125 C 16.078125 -24.503906 15.585938 -24.726562 15.015625 -24.75 L 7.46875 -24.75 L 7.46875 -13.3125 L 13.734375 -13.3125 C 14.222656 -13.34375 14.640625 -13.53125 14.984375 -13.875 C 15.328125 -14.21875 15.5 -14.648438 15.5 -15.171875 L 15.5 -15.6875 L 15.875 -15.6875 L 15.875 -9.84375 L 15.5 -9.84375 L 15.5 -10.390625 C 15.5 -10.890625 15.332031 -11.3125 15 -11.65625 C 14.664062 -12 14.253906 -12.179688 13.765625 -12.203125 L 7.46875 -12.203125 L 7.46875 -1.140625 L 12.765625 -1.140625 C 14.585938 -1.140625 15.976562 -1.546875 16.9375 -2.359375 C 17.90625 -3.179688 18.707031 -4.394531 19.34375 -6 L 19.71875 -6 L 17.578125 0 L 2.21875 0 L 2.21875 -0.375 Z M 2.703125 -0.375 "/></g></g><g style="fill:#d4af37;fill-opacity:1;"><g transform="translate(180.556906, 36.5486)"><path style="stroke:none" d="M 9.84375 -24.75 L 7.46875 -24.75 L 7.46875 -2.703125 C 7.46875 -2.054688 7.695312 -1.503906 8.15625 -1.046875 C 8.613281 -0.597656 9.175781 -0.375 9.84375 -0.375 L 10.28125 -0.375 L 10.328125 0 L 2.21875 0 L 2.21875 -0.375 L 2.703125 -0.375 C 3.335938 -0.375 3.882812 -0.59375 4.34375 -1.03125 C 4.800781 -1.476562 5.039062 -2.019531 5.0625 -2.65625 L 5.0625 -23.203125 C 5.039062 -23.835938 4.800781 -24.382812 4.34375 -24.84375 C 3.882812 -25.300781 3.335938 -25.53125 2.703125 -25.53125 L 2.21875 -25.53125 L 2.21875 -25.90625 L 12.203125 -25.90625 C 14.453125 -25.90625 16.21875 -25.28125 17.5 -24.03125 C 18.78125 -22.78125 19.421875 -21.160156 19.421875 -19.171875 C 19.421875 -17.191406 18.8125 -15.476562 17.59375 -14.03125 C 16.375 -12.59375 14.890625 -11.875 13.140625 -11.875 C 13.503906 -11.707031 13.9375 -11.367188 14.4375 -10.859375 C 14.945312 -10.347656 15.398438 -9.820312 15.796875 -9.28125 C 17.921875 -6.25 19.300781 -4.378906 19.9375 -3.671875 C 20.582031 -2.972656 21.039062 -2.492188 21.3125 -2.234375 C 21.582031 -1.972656 21.878906 -1.71875 22.203125 -1.46875 C 22.523438 -1.226562 22.84375 -1.035156 23.15625 -0.890625 C 23.875 -0.546875 24.640625 -0.375 25.453125 -0.375 L 25.453125 0 L 23.421875 0 C 22.359375 0 21.367188 -0.1875 20.453125 -0.5625 C 19.546875 -0.945312 18.863281 -1.34375 18.40625 -1.75 C 17.945312 -2.164062 17.550781 -2.5625 17.21875 -2.9375 C 16.882812 -3.320312 15.960938 -4.597656 14.453125 -6.765625 C 12.953125 -8.941406 12.078125 -10.179688 11.828125 -10.484375 C 11.585938 -10.796875 11.332031 -11.097656 11.0625 -11.390625 C 10.269531 -12.234375 9.476562 -12.65625 8.6875 -12.65625 L 8.6875 -13.03125 C 8.882812 -13 9.144531 -12.984375 9.46875 -12.984375 C 9.789062 -12.984375 10.1875 -13 10.65625 -13.03125 C 13.71875 -13.101562 15.640625 -14.382812 16.421875 -16.875 C 16.578125 -17.363281 16.65625 -17.820312 16.65625 -18.25 C 16.65625 -18.6875 16.65625 -18.96875 16.65625 -19.09375 C 16.601562 -20.75 16.171875 -22.082031 15.359375 -23.09375 C 14.546875 -24.101562 13.445312 -24.644531 12.0625 -24.71875 C 11.46875 -24.738281 10.726562 -24.75 9.84375 -24.75 Z M 9.84375 -24.75 "/></g></g><g style="fill:#d4af37;fill-opacity:1;"><g transform="translate(216.775533, 36.5486)"><path style="stroke:none" d="M 9.84375 -24.75 L 7.46875 -24.75 L 7.46875 -2.703125 C 7.46875 -2.054688 7.695312 -1.503906 8.15625 -1.046875 C 8.613281 -0.597656 9.175781 -0.375 9.84375 -0.375 L 10.28125 -0.375 L 10.328125 0 L 2.21875 0 L 2.21875 -0.375 L 2.703125 -0.375 C 3.335938 -0.375 3.882812 -0.59375 4.34375 -1.03125 C 4.800781 -1.476562 5.039062 -2.019531 5.0625 -2.65625 L 5.0625 -23.203125 C 5.039062 -23.835938 4.800781 -24.382812 4.34375 -24.84375 C 3.882812 -25.300781 3.335938 -25.53125 2.703125 -25.53125 L 2.21875 -25.53125 L 2.21875 -25.90625 L 12.203125 -25.90625 C 14.453125 -25.90625 16.21875 -25.28125 17.5 -24.03125 C 18.78125 -22.78125 19.421875 -21.160156 19.421875 -19.171875 C 19.421875 -17.191406 18.8125 -15.476562 17.59375 -14.03125 C 16.375 -12.59375 14.890625 -11.875 13.140625 -11.875 C 13.503906 -11.707031 13.9375 -11.367188 14.4375 -10.859375 C 14.945312 -10.347656 15.398438 -9.820312 15.796875 -9.28125 C 17.921875 -6.25 19.300781 -4.378906 19.9375 -3.671875 C 20.582031 -2.972656 21.039062 -2.492188 21.3125 -2.234375 C 21.582031 -1.972656 21.878906 -1.71875 22.203125 -1.46875 C 22.523438 -1.226562 22.84375 -1.035156 23.15625 -0.890625 C 23.875 -0.546875 24.640625 -0.375 25.453125 -0.375 L 25.453125 0 L 23.421875 0 C 22.359375 0 21.367188 -0.1875 20.453125 -0.5625 C 19.546875 -0.945312 18.863281 -1.34375 18.40625 -1.75 C 17.945312 -2.164062 17.550781 -2.5625 17.21875 -2.9375 C 16.882812 -3.320312 15.960938 -4.597656 14.453125 -6.765625 C 12.953125 -8.941406 12.078125 -10.179688 11.828125 -10.484375 C 11.585938 -10.796875 11.332031 -11.097656 11.0625 -11.390625 C 10.269531 -12.234375 9.476562 -12.65625 8.6875 -12.65625 L 8.6875 -13.03125 C 8.882812 -13 9.144531 -12.984375 9.46875 -12.984375 C 9.789062 -12.984375 10.1875 -13 10.65625 -13.03125 C 13.71875 -13.101562 15.640625 -14.382812 16.421875 -16.875 C 16.578125 -17.363281 16.65625 -17.820312 16.65625 -18.25 C 16.65625 -18.6875 16.65625 -18.96875 16.65625 -19.09375 C 16.601562 -20.75 16.171875 -22.082031 15.359375 -23.09375 C 14.546875 -24.101562 13.445312 -24.644531 12.0625 -24.71875 C 11.46875 -24.738281 10.726562 -24.75 9.84375 -24.75 Z M 9.84375 -24.75 "/></g></g><g style="fill:#d4af37;fill-opacity:1;"><g transform="translate(252.994147, 36.5486)"><path style="stroke:none" d="M 26.484375 -0.375 L 26.78125 -0.375 L 26.78125 0 L 18.453125 0 L 18.453125 -0.375 L 18.796875 -0.375 C 19.304688 -0.375 19.691406 -0.539062 19.953125 -0.875 C 20.210938 -1.207031 20.34375 -1.519531 20.34375 -1.8125 C 20.34375 -2.101562 20.296875 -2.398438 20.203125 -2.703125 L 17.828125 -8.984375 L 7.84375 -8.984375 L 5.359375 -2.65625 C 5.265625 -2.363281 5.21875 -2.078125 5.21875 -1.796875 C 5.21875 -1.515625 5.34375 -1.207031 5.59375 -0.875 C 5.851562 -0.539062 6.242188 -0.375 6.765625 -0.375 L 7.09375 -0.375 L 7.09375 0 L -0.34375 0 L -0.34375 -0.375 L 0 -0.375 C 0.613281 -0.375 1.210938 -0.566406 1.796875 -0.953125 C 2.390625 -1.347656 2.875 -1.929688 3.25 -2.703125 L 11.609375 -22.609375 C 12.523438 -24.609375 12.984375 -25.878906 12.984375 -26.421875 L 13.3125 -26.421875 L 23.234375 -2.703125 C 23.578125 -1.929688 24.046875 -1.347656 24.640625 -0.953125 C 25.234375 -0.566406 25.847656 -0.375 26.484375 -0.375 Z M 8.28125 -10.09375 L 17.390625 -10.09375 L 12.9375 -21.984375 Z M 8.28125 -10.09375 "/></g></g></g></g></g></svg>