<svg xmlns="http://www.w3.org/2000/svg" xmlns:xlink="http://www.w3.org/1999/xlink" width="500" zoomAndPan="magnify" viewBox="0 0 375 374.999991" height="500" preserveAspectRatio="xMidYMid meet" version="1.0"><defs><g/><clipPath id="11bc318faf"><path d="M 0.5 6.558594 L 65.164062 6.558594 L 65.164062 71.875 L 0.5 71.875 Z M 0.5 6.558594 " clip-rule="nonzero"/></clipPath><clipPath id="306a57e399"><path d="M 5.082031 0.136719 L 69.742188 0.136719 L 69.742188 65.453125 L 5.082031 65.453125 Z M 5.082031 0.136719 " clip-rule="nonzero"/></clipPath><clipPath id="05518f2ffc"><rect x="0" width="70" y="0" height="72"/></clipPath></defs><g transform="matrix(1, 0, 0, 1, 37, 141)"><g clip-path="url(#05518f2ffc)"><g clip-path="url(#11bc318faf)"><path fill="#5682b1" d="M 48.140625 71.785156 C 44.25 69.578125 40.796875 66.714844 37.570312 63.636719 C 35.128906 61.3125 32.8125 58.871094 30.464844 56.453125 C 30.035156 56.648438 29.609375 56.84375 29.179688 57.035156 C 25.222656 58.804688 21.230469 60.5 17.207031 62.113281 C 15.207031 62.917969 13.195312 63.703125 11.175781 64.464844 C 10.445312 64.742188 9.40625 65.332031 8.621094 64.917969 C 8.238281 64.714844 8.019531 64.191406 8.152344 63.792969 C 8.101562 63.746094 8.070312 63.675781 8.097656 63.597656 C 8.28125 63.097656 8.46875 62.597656 8.65625 62.101562 C 10.175781 58.066406 11.828125 54.085938 13.613281 50.164062 C 14.625 47.933594 15.6875 45.726562 16.785156 43.539062 C 11.613281 39.085938 6.21875 34.894531 0.632812 30.984375 C 0.496094 30.890625 0.550781 30.613281 0.738281 30.679688 C 1.234375 30.847656 1.726562 31.011719 2.226562 31.171875 C 6.214844 32.433594 10.320312 33.300781 14.460938 33.90625 C 16.800781 34.246094 19.148438 34.503906 21.503906 34.703125 C 22.878906 32.28125 24.308594 29.886719 25.785156 27.523438 C 28.058594 23.898438 30.453125 20.347656 32.957031 16.875 C 35.46875 13.402344 38.09375 10.011719 40.832031 6.707031 C 40.929688 6.589844 41.09375 6.683594 41.113281 6.808594 C 41.195312 7.335938 41.277344 7.859375 41.359375 8.382812 C 42.011719 12.570312 42.625 16.765625 43.203125 20.96875 C 43.78125 25.167969 44.324219 29.371094 44.828125 33.582031 C 44.917969 34.3125 45 35.042969 45.085938 35.773438 C 47.574219 35.886719 50.054688 36.027344 52.535156 36.234375 C 56.742188 36.582031 60.933594 37.109375 65.070312 37.953125 C 65.207031 37.980469 65.242188 38.175781 65.121094 38.246094 C 64.652344 38.53125 64.179688 38.816406 63.707031 39.097656 C 59.984375 41.316406 56.21875 43.464844 52.410156 45.535156 C 50.445312 46.605469 48.464844 47.65625 46.480469 48.6875 C 46.816406 52.105469 47.128906 55.527344 47.421875 58.949219 C 47.777344 63.175781 48.097656 67.402344 48.378906 71.632812 C 48.386719 71.753906 48.25 71.84375 48.140625 71.785156 Z M 48.140625 71.785156 " fill-opacity="1" fill-rule="nonzero"/></g><g clip-path="url(#306a57e399)"><path fill="#739ec9" d="M 52.722656 65.359375 C 48.832031 63.15625 45.375 60.289062 42.152344 57.214844 C 39.710938 54.890625 37.390625 52.445312 35.046875 50.03125 C 34.617188 50.222656 34.1875 50.421875 33.761719 50.613281 C 29.804688 52.382812 25.8125 54.078125 21.789062 55.691406 C 19.785156 56.496094 17.777344 57.28125 15.757812 58.042969 C 15.027344 58.320312 13.988281 58.90625 13.203125 58.492188 C 12.820312 58.289062 12.601562 57.765625 12.730469 57.371094 C 12.679688 57.324219 12.652344 57.253906 12.679688 57.175781 C 12.863281 56.675781 13.050781 56.175781 13.238281 55.675781 C 14.753906 51.644531 16.410156 47.664062 18.195312 43.742188 C 19.207031 41.511719 20.265625 39.304688 21.367188 37.117188 C 16.195312 32.664062 10.800781 28.472656 5.210938 24.558594 C 5.078125 24.464844 5.132812 24.191406 5.320312 24.257812 C 5.8125 24.425781 6.308594 24.589844 6.804688 24.746094 C 10.796875 26.011719 14.902344 26.878906 19.042969 27.484375 C 21.382812 27.824219 23.730469 28.082031 26.085938 28.28125 C 27.460938 25.855469 28.890625 23.464844 30.367188 21.101562 C 32.640625 17.476562 35.03125 13.925781 37.539062 10.453125 C 40.050781 6.976562 42.675781 3.589844 45.414062 0.285156 C 45.507812 0.167969 45.671875 0.261719 45.691406 0.386719 C 45.773438 0.910156 45.855469 1.433594 45.941406 1.960938 C 46.589844 6.148438 47.207031 10.34375 47.785156 14.542969 C 48.363281 18.746094 48.90625 22.949219 49.410156 27.15625 C 49.496094 27.890625 49.582031 28.617188 49.667969 29.347656 C 52.152344 29.460938 54.636719 29.605469 57.117188 29.8125 C 61.324219 30.160156 65.515625 30.6875 69.652344 31.527344 C 69.789062 31.558594 69.824219 31.75 69.703125 31.824219 C 69.234375 32.109375 68.761719 32.390625 68.289062 32.671875 C 64.566406 34.894531 60.800781 37.042969 56.992188 39.113281 C 55.027344 40.183594 53.046875 41.234375 51.0625 42.265625 C 51.398438 45.683594 51.710938 49.105469 52 52.527344 C 52.359375 56.75 52.675781 60.980469 52.957031 65.210938 C 52.96875 65.328125 52.828125 65.421875 52.722656 65.359375 Z M 52.722656 65.359375 " fill-opacity="1" fill-rule="nonzero"/></g></g></g><g fill="#ffffff" fill-opacity="1"><g transform="translate(107.864844, 197.249987)"><g><path d="M 30.75 -21.546875 L 23.828125 -21.546875 C 23.765625 -23.378906 23.203125 -24.757812 22.140625 -25.6875 C 21.078125 -26.625 19.617188 -27.09375 17.765625 -27.09375 C 14.867188 -27.09375 12.628906 -26.054688 11.046875 -23.984375 C 9.472656 -21.921875 8.6875 -19.015625 8.6875 -15.265625 C 8.6875 -11.648438 9.492188 -8.910156 11.109375 -7.046875 C 12.734375 -5.179688 15.125 -4.25 18.28125 -4.25 C 19.363281 -4.25 20.363281 -4.289062 21.28125 -4.375 C 22.195312 -4.46875 22.988281 -4.628906 23.65625 -4.859375 L 23.65625 -11.390625 L 17.625 -11.390625 L 17.625 -16.5625 L 30.3125 -16.5625 L 30.3125 -1.03125 C 28.507812 -0.40625 26.695312 0.0351562 24.875 0.296875 C 23.050781 0.554688 21.082031 0.6875 18.96875 0.6875 C 12.800781 0.6875 8.367188 -0.710938 5.671875 -3.515625 C 2.984375 -6.328125 1.640625 -10.171875 1.640625 -15.046875 C 1.640625 -20.296875 3.117188 -24.425781 6.078125 -27.4375 C 9.046875 -30.445312 13 -31.953125 17.9375 -31.953125 C 21.71875 -31.953125 24.796875 -31.054688 27.171875 -29.265625 C 29.554688 -27.472656 30.75 -24.898438 30.75 -21.546875 Z M 30.75 -21.546875 "/></g></g></g><g fill="#ffffff" fill-opacity="1"><g transform="translate(138.56387, 197.249987)"><g><path d="M 16.5625 -31.09375 C 20.082031 -31.09375 22.632812 -30.296875 24.21875 -28.703125 C 25.8125 -27.109375 26.609375 -25.207031 26.609375 -23 C 26.609375 -21.113281 26.078125 -19.523438 25.015625 -18.234375 C 23.960938 -16.941406 22.332031 -15.992188 20.125 -15.390625 C 21.925781 -15.191406 23.242188 -14.640625 24.078125 -13.734375 C 24.910156 -12.835938 25.519531 -10.566406 25.90625 -6.921875 C 26.289062 -3.285156 26.859375 -0.976562 27.609375 0 L 20.25 0 C 19.507812 -5.25 19.015625 -8.65625 18.765625 -10.21875 C 18.523438 -11.78125 17.441406 -12.5625 15.515625 -12.5625 L 9.375 -12.5625 L 9.375 0 L 2.578125 0 L 2.578125 -31.09375 Z M 14.96875 -17.5 C 16.394531 -17.5 17.53125 -17.898438 18.375 -18.703125 C 19.226562 -19.503906 19.65625 -20.59375 19.65625 -21.96875 C 19.65625 -23.34375 19.273438 -24.390625 18.515625 -25.109375 C 17.753906 -25.828125 16.597656 -26.1875 15.046875 -26.1875 L 9.15625 -26.1875 L 9.15625 -17.5 Z M 14.96875 -17.5 "/></g></g></g><g fill="#ffffff" fill-opacity="1"><g transform="translate(164.490321, 197.249987)"><g><path d="M 19.34375 -31.09375 L 30.140625 0 L 23.4375 0 L 21.203125 -6.703125 L 8.90625 -6.703125 L 6.578125 0 L 0.21875 0 L 11.4375 -31.09375 Z M 10.625 -11.734375 L 19.515625 -11.734375 L 15.21875 -24.984375 Z M 10.625 -11.734375 "/></g></g></g><g fill="#ffffff" fill-opacity="1"><g transform="translate(192.781556, 197.249987)"><g><path d="M 7.78125 -30.953125 L 15.90625 -6.578125 L 24.078125 -30.953125 L 30.65625 -30.953125 L 19.21875 0 L 11.953125 0 L 0.515625 -30.953125 Z M 7.78125 -30.953125 "/></g></g></g><g fill="#ffffff" fill-opacity="1"><g transform="translate(221.072791, 197.249987)"><g><path d="M 24 -31.09375 L 24 -26.015625 L 9.84375 -26.015625 L 9.84375 -18.625 L 23.09375 -18.625 L 23.09375 -13.546875 L 9.84375 -13.546875 L 9.84375 -5.15625 L 24.46875 -5.15625 L 24.46875 0 L 3.1875 0 L 3.1875 -31.09375 Z M 24 -31.09375 "/></g></g></g><g fill="#ffffff" fill-opacity="1"><g transform="translate(244.59145, 197.249987)"><g><path d="M 12.734375 -31.09375 L 24.375 -6.625 L 24.375 -31.09375 L 30.578125 -31.09375 L 30.578125 0 L 21.40625 0 L 9.375 -25.796875 L 9.375 0 L 3.09375 0 L 3.09375 -31.09375 Z M 12.734375 -31.09375 "/></g></g></g><g fill="#ffffff" fill-opacity="1"><g transform="translate(275.290476, 197.249987)"><g><path d="M 31.640625 -15.828125 C 31.640625 -10.722656 30.320312 -6.675781 27.6875 -3.6875 C 25.050781 -0.707031 21.410156 0.78125 16.765625 0.78125 C 12.066406 0.78125 8.40625 -0.613281 5.78125 -3.40625 C 3.15625 -6.207031 1.84375 -10.117188 1.84375 -15.140625 C 1.84375 -20.296875 3.144531 -24.347656 5.75 -27.296875 C 8.363281 -30.253906 12.035156 -31.734375 16.765625 -31.734375 C 21.640625 -31.734375 25.335938 -30.253906 27.859375 -27.296875 C 30.378906 -24.347656 31.640625 -20.523438 31.640625 -15.828125 Z M 16.640625 -4.125 C 19.472656 -4.125 21.519531 -5.179688 22.78125 -7.296875 C 24.050781 -9.421875 24.6875 -12.320312 24.6875 -16 C 24.6875 -19.320312 24.003906 -21.976562 22.640625 -23.96875 C 21.273438 -25.96875 19.347656 -26.96875 16.859375 -26.96875 C 14.222656 -26.96875 12.222656 -25.984375 10.859375 -24.015625 C 9.492188 -22.046875 8.8125 -19.257812 8.8125 -15.65625 C 8.8125 -11.78125 9.484375 -8.890625 10.828125 -6.984375 C 12.179688 -5.078125 14.117188 -4.125 16.640625 -4.125 Z M 16.640625 -4.125 "/></g></g></g><g fill="#ffffff" fill-opacity="1"><g transform="translate(305.989502, 197.249987)"><g><path d="M 16.5625 -31.09375 C 20.082031 -31.09375 22.632812 -30.296875 24.21875 -28.703125 C 25.8125 -27.109375 26.609375 -25.207031 26.609375 -23 C 26.609375 -21.113281 26.078125 -19.523438 25.015625 -18.234375 C 23.960938 -16.941406 22.332031 -15.992188 20.125 -15.390625 C 21.925781 -15.191406 23.242188 -14.640625 24.078125 -13.734375 C 24.910156 -12.835938 25.519531 -10.566406 25.90625 -6.921875 C 26.289062 -3.285156 26.859375 -0.976562 27.609375 0 L 20.25 0 C 19.507812 -5.25 19.015625 -8.65625 18.765625 -10.21875 C 18.523438 -11.78125 17.441406 -12.5625 15.515625 -12.5625 L 9.375 -12.5625 L 9.375 0 L 2.578125 0 L 2.578125 -31.09375 Z M 14.96875 -17.5 C 16.394531 -17.5 17.53125 -17.898438 18.375 -18.703125 C 19.226562 -19.503906 19.65625 -20.59375 19.65625 -21.96875 C 19.65625 -23.34375 19.273438 -24.390625 18.515625 -25.109375 C 17.753906 -25.828125 16.597656 -26.1875 15.046875 -26.1875 L 9.15625 -26.1875 L 9.15625 -17.5 Z M 14.96875 -17.5 "/></g></g></g><g fill="#ffffff" fill-opacity="1"><g transform="translate(332.294075, 171.255574)"><g><path d="M 6.046875 -9.28125 C 5.117188 -9.28125 4.265625 -9.503906 3.484375 -9.953125 C 2.710938 -10.398438 2.097656 -11.007812 1.640625 -11.78125 C 1.191406 -12.5625 0.96875 -13.414062 0.96875 -14.34375 C 0.96875 -15.300781 1.191406 -16.160156 1.640625 -16.921875 C 2.097656 -17.691406 2.710938 -18.300781 3.484375 -18.75 C 4.265625 -19.195312 5.117188 -19.421875 6.046875 -19.421875 C 6.992188 -19.421875 7.851562 -19.195312 8.625 -18.75 C 9.394531 -18.300781 10.003906 -17.691406 10.453125 -16.921875 C 10.898438 -16.160156 11.125 -15.300781 11.125 -14.34375 C 11.125 -13.414062 10.898438 -12.5625 10.453125 -11.78125 C 10.003906 -11.007812 9.394531 -10.398438 8.625 -9.953125 C 7.851562 -9.503906 6.992188 -9.28125 6.046875 -9.28125 Z M 6.046875 -10.125 C 6.828125 -10.125 7.539062 -10.3125 8.1875 -10.6875 C 8.832031 -11.0625 9.34375 -11.566406 9.71875 -12.203125 C 10.09375 -12.847656 10.28125 -13.5625 10.28125 -14.34375 C 10.28125 -15.132812 10.09375 -15.84375 9.71875 -16.46875 C 9.34375 -17.101562 8.832031 -17.609375 8.1875 -17.984375 C 7.539062 -18.359375 6.828125 -18.546875 6.046875 -18.546875 C 5.285156 -18.546875 4.582031 -18.359375 3.9375 -17.984375 C 3.289062 -17.609375 2.78125 -17.101562 2.40625 -16.46875 C 2.03125 -15.84375 1.84375 -15.132812 1.84375 -14.34375 C 1.84375 -13.5625 2.03125 -12.847656 2.40625 -12.203125 C 2.78125 -11.566406 3.289062 -11.0625 3.9375 -10.6875 C 4.582031 -10.3125 5.285156 -10.125 6.046875 -10.125 Z M 5.171875 -11.375 L 3.953125 -11.375 L 3.953125 -17.28125 L 6.59375 -17.28125 C 7.132812 -17.28125 7.582031 -17.144531 7.9375 -16.875 C 8.289062 -16.601562 8.46875 -16.15625 8.46875 -15.53125 C 8.46875 -15.195312 8.394531 -14.882812 8.25 -14.59375 C 8.113281 -14.3125 7.878906 -14.125 7.546875 -14.03125 L 8.625 -11.375 L 7.328125 -11.375 L 6.421875 -13.71875 L 5.171875 -13.71875 Z M 5.171875 -16.203125 L 5.171875 -14.78125 L 6.421875 -14.78125 C 6.972656 -14.78125 7.25 -15.007812 7.25 -15.46875 C 7.25 -15.957031 6.972656 -16.203125 6.421875 -16.203125 Z M 5.171875 -16.203125 "/></g></g></g></svg>